# xmcd
#
# Track frame offsets: 
#        150
#        18147
#        38193
#        61177
#        84258
#        109193
#        127871
#        150628
#        175175
#        192511
#        212344
#        235187
#        254219
#        275948
#        299242
#
# Disc length: 4283 seconds
#
# Revision: 1
# Processed by: cddbd v1.5.2PL0 Copyright (c) Steve Scherf et al.
# Submitted via: ExactAudioCopy v0.99pb5
#
DISCID=d810b90f
DTITLE=Various Artist - Hits Inmortales de la Salsa [CD 2)
DYEAR=1999
DGENRE=Salsa
TTITLE0=Dejame un beso
TTITLE1=Torero
TTITLE2=Dile a ella
TTITLE3=Sopita en botella
TTITLE4=Conciencia
TTITLE5=Azuquita pal cafe
TTITLE6=Amores como el nuestro
TTITLE7=El dia de mi suerte
TTITLE8=Que le den candela
TTITLE9=Juliana
TTITLE10=Londres
TTITLE11=Camaleon
TTITLE12=Nunca voy a olvidarte
TTITLE13=Cali pachanguero
TTITLE14=El preso
EXTD=YEAR: 1999
EXTT0=
EXTT1=
EXTT2=
EXTT3=
EXTT4=
EXTT5=
EXTT6=
EXTT7=
EXTT8=
EXTT9=
EXTT10=
EXTT11=
EXTT12=
EXTT13=
EXTT14=
PLAYORDER=
